# xmcd
#
# Track frame offsets:
# 150
# 16875
# 31060
# 47857
# 61482
# 78467
# 92867
# 107660
# 125477
# 139490
# 154845
# 169072
#
# Disc length: 2472 seconds
#
#
# Revision: 0
# Processed by: cddbd v1.5PL3 Copyright (c) Steve Scherf et al.
# Submitted via: FreeRIP 2.00 
#
DISCID=9e09a60c
DTITLE=Lonestar Ladies - A Tribute To Terri Clark
DYEAR=1900
DGENRE=Country
TTITLE0=Three Mississippi
TTITLE1=A Little Gasoline
TTITLE2=Pain To Kill
TTITLE3=Getting There
TTITLE4=I Just Called To Say Goodbye
TTITLE5=Poor Poor Pitiful Me
TTITLE6=You Can't Help The One You Love
TTITLE7=Better Than You
TTITLE8=Emotional Girl
TTITLE9=I Just Wanna Be Mad
TTITLE10=Better Things To do
TTITLE11=No Fear
EXTD=
EXTT0=
EXTT1=
EXTT2=
EXTT3=
EXTT4=
EXTT5=
EXTT6=
EXTT7=
EXTT8=
EXTT9=
EXTT10=
EXTT11=
PLAYORDER=
